<svg height="64" width="64" xmlns="http://www.w3.org/2000/svg" viewBox="0 0 512.002 512.002" xml:space="preserve"><path style="fill:#328777" d="M124.745 358.571S75.077 389.747 36.883 469.07c-5.575 11.58-.282 25.476 11.571 30.443l5.869 2.46c12.693 5.318 27.182-1.913 30.474-15.275 7.139-28.989 25.703-77.545 55.804-97.517l-15.856-30.61z"/><path style="fill:#266659" d="m140.601 389.181-15.856-30.609s-16.64 10.446-38.065 34.627c9.158 6.285 20.567 14.144 29.798 20.598 6.993-9.926 15.027-18.581 24.123-24.616z"/><path style="fill:#7cd8a4" d="M438.041 29.251c50.513 44.396-62.112 140.388-41.916 150.433 20.196 10.045 73.927-49.867 73.927-49.867l2.552 48.466c-21.993 31.059-53.129 55.306-73.765 69.331-8.168 5.551-2.721 18.409 6.924 16.289 32.563-7.155 71.599-38.44 71.599-38.44l-18.493 50.395c-38.503 41.319-95.839 52.216-128.699 54.954-7.308.609-8.444 10.826-1.456 13.05 36.387 11.581 74.942-1.512 74.942-1.512l-32.168 51.278c-42.673 22.221-100.744 15.355-132.242 9.085-6.519-1.298-10.349 7.053-5.133 11.172 32.869 25.956 64.13 23.94 64.13 23.94-125.949 62.374-166.868-62.811-166.868-62.811l-3.136-2.756S-.483 349.423 47.66 217.591c0 0 1.744 27.062 26.12 54.399 5.833 6.541 16.449.462 13.843-7.906-9.848-31.619-20.813-83.123-5.535-124.806l46.724-38.485s-6.242 31.009 3.34 62.055c2.98 9.656 17.271 7.507 17.257-2.598-.046-33.84 6.25-84.123 38.256-122.75l47.604-24.809s-46.044 75.628-22.483 103.86c0 0 24.521-63.37 69.884-105.199l48.392-3.691s-52.518 60.978-39.963 79.718S384.391-17.9 434.905 26.495l3.136 2.756z"/><g style="opacity:.18"><path style="fill:#328777" d="M399.579 247.613c20.636-14.024 51.772-38.272 73.765-69.331l-2.552-48.466s-53.731 59.912-73.927 49.867c-17.812-8.858 67.683-84.567 53.47-132.775C342.22 215.4 207.165 320.035 129.559 372.767l2.558 2.247s40.919 125.185 166.868 62.811c0 0-31.261 2.015-64.13-23.941-5.216-4.119-1.386-12.469 5.132-11.172 31.498 6.269 89.567 13.136 132.242-9.085l32.168-51.278s-38.555 13.094-74.942 1.512c-6.989-2.224-5.853-12.441 1.456-13.05 32.86-2.738 90.195-13.635 128.699-54.954l18.493-50.395s-39.036 31.285-71.599 38.44c-9.646 2.12-15.094-10.738-6.925-16.289z"/></g><path d="M481.834 219.247a7.658 7.658 0 0 0-9.26.238c-.377.301-38.051 30.257-68.455 36.937-.403.09-1.016.224-1.445-.771-.463-1.072.143-1.483.469-1.704 22.219-15.1 53.391-39.718 75.711-71.24a7.648 7.648 0 0 0 1.398-4.829l-2.552-48.466a7.658 7.658 0 0 0-13.35-4.711c-.131.147-13.279 14.761-28.682 28.008-18.285 15.724-28.961 20.212-33.817 20.46 2.187-5.963 10.805-18.534 17.332-28.057 24.289-35.431 60.989-88.968 23.952-121.582l-.012-.012-.007-.005-.018-.017-3.135-2.755c-37.102-32.61-85.509 10.683-117.54 39.331-8.605 7.696-19.964 17.855-25.598 20.79-.376-4.838 2.691-15.969 15.877-36.054 11.151-16.984 24.037-32.002 24.166-32.151a7.658 7.658 0 0 0 1.03-8.452 7.656 7.656 0 0 0-7.416-4.182l-48.393 3.691c-.038.003-.074.014-.11.018a7.726 7.726 0 0 0-1.144.185l-.051.015a7.773 7.773 0 0 0-1.078.366c-.044.018-.089.034-.132.053-.346.153-.68.335-1.002.539-.049.032-.098.062-.146.095-.32.212-.625.447-.913.71-.01.009-.022.016-.033.026-31.417 28.97-52.879 67.364-63.701 89.752-.42-22.741 15.113-57.549 28.035-78.8a7.658 7.658 0 0 0-10.082-10.774l-47.604 24.809a7.686 7.686 0 0 0-2.358 1.905 147.424 147.424 0 0 0-4.302 5.48 7.643 7.643 0 0 0-.574.766c-28.959 39.023-35.187 87.115-35.14 121.401 0 .435.001.976-.984 1.126-1.007.145-1.166-.374-1.297-.796-8.859-28.704-3.206-58.001-3.149-58.284a7.657 7.657 0 0 0-12.376-7.422l-46.724 38.484a7.65 7.65 0 0 0-2.322 3.276c-15.634 42.652-5.686 94.083 5.413 129.718.095.305.059.347-.005.424a.985.985 0 0 1-.581.31c0-.001-.083-.04-.228-.202-22.136-24.826-24.177-49.579-24.194-49.794a7.657 7.657 0 0 0-6.553-7.088 7.651 7.651 0 0 0-8.284 4.955c-15.604 42.719-14.991 79.181 1.819 108.368 14.65 25.436 38.504 39.918 57.171 47.837-15.515 12.519-43.084 40.379-69.478 95.196-3.614 7.504-3.974 15.93-1.017 23.724 2.961 7.806 8.832 13.88 16.528 17.104l5.87 2.46a30.136 30.136 0 0 0 11.654 2.347c4.651 0 9.295-1.079 13.556-3.224a29.975 29.975 0 0 0 15.659-19.631c5.859-23.791 19.148-65.102 44.134-85.874 10.556 17.73 28.558 40.058 56.469 51.776 12.509 5.253 25.805 7.875 39.837 7.874 5.513 0 11.141-.414 16.875-1.223a7.604 7.604 0 0 0 1.946.263c1.52 0 3-.463 4.253-1.298 14.639-2.768 29.956-8.085 45.895-15.979a7.648 7.648 0 0 0 3.99-8.815c-.927-3.516-4.207-5.882-7.849-5.692-.275.019-26.132 1.199-54.349-18.876 33.088 6.002 89.246 11.164 131.59-10.884a7.66 7.66 0 0 0 2.951-2.723l32.168-51.278a7.654 7.654 0 0 0-.479-8.81 7.67 7.67 0 0 0-8.463-2.514c-.345.115-33.25 10.972-65.249 2.869 33.415-3.429 89.941-15.485 128.52-56.885a7.657 7.657 0 0 0 1.587-2.582l18.493-50.395a7.66 7.66 0 0 0-2.717-8.855zm-75.284-82.793c-15.246 22.24-22.47 33.335-20.112 42.413.876 3.372 3.105 6.097 6.276 7.674 11.715 5.828 28.539-1.233 52.941-22.217 6.578-5.657 12.698-11.478 17.679-16.434l1.39 26.396c-37.815 29.302-77.909 40.958-119.222 34.613-19.582-3.004-34.969-9.574-43.953-14.212L438.133 40.688c15.871 22.482-5.772 58.116-31.583 95.766zM299.973 36.286c-17.679 26.895-22.52 44.484-15.236 55.355 1.972 2.943 4.961 4.802 8.416 5.238 9.302 1.166 19.38-7.416 39.479-25.39 35.701-31.929 69.789-59.023 94.454-41.428L289.623 185.05c-5.601-7.699-15.018-22.683-21.072-43.288-11.834-40.272-5.547-81.662 18.669-123.077l26.781-2.043c-4.274 5.578-9.262 12.394-14.028 19.644zm-83.108-5.367c-2.924 6.076-6.02 13.029-8.828 20.384-12.429 32.558-12.81 56.161-1.131 70.156a7.661 7.661 0 0 0 13.021-2.14c.168-.433 12.155-30.918 34.309-62.915-10.564 36.556-6.866 67.606-.381 89.677 7.41 25.218 19.352 42.847 25.39 50.671l-44.944 50.674c-7.341-8.865-21.433-27.646-33.128-53.647-21.817-48.504-25.484-98.023-10.927-147.208a127.325 127.325 0 0 1 2.349-3.002l24.27-12.65zm-92.03 134.189c2.462 7.978 9.958 12.676 18.226 11.424 8.259-1.252 14.019-7.95 14.008-16.291-.027-19.393 2.068-43.486 9.644-67.411-2.483 44.074 8.831 81.468 20.737 107.773 13.263 29.304 29.089 49.669 36.564 58.422l-43.606 49.166c-17.572-23.81-72.83-104.117-75.948-176.204a7.658 7.658 0 0 0-.136-1.099l14.945-12.31c-.493 12.425.278 29.396 5.566 46.53zm-77.293 80.179c4.156 9.536 10.585 20.656 20.523 31.801 5.063 5.68 12.915 6.977 19.541 3.226 6.554-3.709 9.569-11.319 7.331-18.506-8.375-26.893-20.18-77.605-6.338-117.965l1.297-1.068c3.593 35.698 18.079 76.172 43.157 120.5 15.32 27.078 30.206 47.687 36.962 56.636l-14.88 16.777c-.053.023-.104.052-.156.077-12.8.326-67.249-2.721-110.113-72.834.43-6.006 1.31-12.217 2.676-18.644zm7.964 70.306c-3.889-6.775-6.72-14.076-8.539-21.86 23.819 30.031 49.158 44.316 67.762 51.098 10.527 3.838 19.911 5.705 27.351 6.574l-11.934 13.455c-.186-.048-.369-.106-.558-.14-.511-.092-51.437-9.682-74.082-49.127zm21.855 169.892a14.683 14.683 0 0 1-7.674 9.611 14.815 14.815 0 0 1-12.404.433l-5.87-2.46a14.685 14.685 0 0 1-8.126-8.412c-1.452-3.827-1.276-7.963.496-11.644 31.429-65.275 64.488-89.992 73.141-95.637 3.368.968 6.053 1.607 7.795 1.985l.1.089c.771 2.09 2.169 5.625 4.25 10.067-28.449 21.802-43.785 63.796-51.708 95.968zm62.819-108.854 13.142-14.818c1.835 7.148 4.862 15.962 9.859 25.6 8.918 17.197 25.792 39.865 57.267 59.347-7.5-.998-14.701-2.913-21.574-5.789-35.992-15.053-53.693-52.104-58.694-64.34zm100.561 18.57c-6.456-1.284-12.651 1.866-15.409 7.844-2.764 5.989-1.143 12.76 4.036 16.849 14.514 11.462 28.753 17.826 40.52 21.346-6.316 2.044-12.481 3.58-18.499 4.636-34.413-15.581-60.029-37.909-74.2-64.728-7.928-15.003-10.335-27.744-11.062-33.772l15.524-17.503c10.15 5.747 32.043 17.51 60.061 28.9 44.823 18.221 84.966 27.412 119.618 27.412 1.969 0 3.915-.04 5.849-.099l-1.051 1.675c-40.568 20.074-95.802 13.328-125.387 7.44zm85.65-44.042c22.452 7.146 45.369 5.584 60.847 2.949l-10.156 16.189a7.829 7.829 0 0 0-1.502-.023c-71.012 6.089-156.498-37.241-183.509-52.15l43.615-49.176c10.303 6.578 31.865 18.88 61.192 27.832 18.661 5.696 42.299 10.482 69.059 10.482a219.83 219.83 0 0 0 41.535-3.956c-28.753 13.532-58.639 18.267-77.94 19.875-6.913.575-12.283 5.791-13.062 12.68-.777 6.9 3.302 13.191 9.921 15.298zm125.83-79.413c-.686.72-1.392 1.409-2.091 2.11-47.16 21.098-97.033 23.937-148.244 8.436-25.892-7.837-45.61-18.648-55.878-24.981l45.078-50.825c9.355 5.2 27.396 13.646 51.339 17.438a154.525 154.525 0 0 0 24.166 1.897c19.135 0 41.61-3.54 65.8-14.246-13.303 12.109-26.745 22.154-37.856 29.706-6.707 4.557-9.145 12.958-5.928 20.431 3.197 7.426 10.931 11.403 18.8 9.673 18.917-4.156 39.469-15.689 54.233-25.307l-9.419 25.668z"/></svg>