<svg width="150" height="37" fill="none" xmlns="http://www.w3.org/2000/svg"><path d="M34.978 12.958h4.474c-.395-1.426-1.58-2.457-3.092-2.457-1.097 0-2.029.417-2.862 1.151L32.17 9.996c.987-.921 2.204-1.656 4.178-1.656 3.355 0 5.701 2.545 5.701 5.66 0 3.17-2.39 5.66-5.614 5.66-2.105 0-3.443-.637-4.561-1.843l1.48-1.613c.878.801 1.722 1.295 3.005 1.295 1.579 0 2.752-1.075 3.114-2.545h-4.485v-1.996h-.01Zm8.947 1.053c0-3.115 2.457-5.66 5.834-5.66s5.8 2.523 5.8 5.66c0 3.116-2.456 5.66-5.833 5.66-3.377 0-5.8-2.523-5.8-5.66Zm9.123 0c0-1.875-1.37-3.444-3.311-3.444-1.941 0-3.279 1.536-3.279 3.444 0 1.876 1.37 3.445 3.312 3.445 1.94 0 3.278-1.536 3.278-3.445Zm4.891-5.474h2.598l2.873 4.629 2.873-4.629h2.599v10.947h-2.39v-7.14l-3.082 4.661h-.066l-3.048-4.629v7.097H57.94V8.537Zm13.267 4.959h4.814v2.282h-4.814v-2.282Zm7.149-4.959h9.134v10.947h-2.412v-8.775h-4.31v8.775h-2.412V8.537Zm11.985 0h4.474c2.61 0 4.188 1.547 4.188 3.817 0 2.534-1.973 3.85-4.419 3.85h-1.83v3.28H90.34V8.537Zm4.32 5.517c1.206 0 1.908-.724 1.908-1.689 0-1.075-.746-1.656-1.952-1.656h-1.864v3.345h1.908Zm5.877-.043c0-3.115 2.456-5.66 5.834-5.66 3.377 0 5.8 2.523 5.8 5.66 0 3.116-2.456 5.66-5.833 5.66-3.378 0-5.801-2.523-5.801-5.66Zm9.112 0c0-1.875-1.371-3.444-3.311-3.444-1.941 0-3.279 1.536-3.279 3.444 0 1.876 1.371 3.445 3.312 3.445 1.929-.011 3.278-1.536 3.278-3.445Zm4.89-5.474h8.257v2.139h-5.866v2.216h5.153v2.139h-5.153v2.303h5.943v2.139h-8.334V8.537Zm10.713 0h2.412v4.782l4.441-4.782h2.906l-4.452 4.64 4.66 6.296h-2.894l-3.389-4.662-1.261 1.317v3.345h-2.412V8.537h-.011Zm14.189 2.216h-3.334V8.537h9.068v2.216h-3.333v8.72h-2.412v-8.72h.011ZM32.182 24.957h.395v2.084l1.995-2.084h.505l-1.491 1.525 1.556 1.963h-.493l-1.338-1.69-.745.747v.932h-.395v-3.477h.011Zm4.013 1.744c0-.965.724-1.799 1.776-1.799 1.064 0 1.766.834 1.766 1.8 0 .964-.724 1.798-1.776 1.798-1.053 0-1.766-.823-1.766-1.799Zm3.147 0c0-.79-.581-1.437-1.37-1.437-.8 0-1.36.637-1.36 1.437 0 .79.581 1.437 1.37 1.437.79 0 1.36-.636 1.36-1.437Zm1.974-1.744h.395l1.272 1.898 1.271-1.898h.395v3.477h-.395v-2.819l-1.271 1.865h-.011L41.7 25.615v2.82h-.384v-3.478Zm5.066 0h2.74v3.477h-.394v-3.126h-1.963v3.126h-.394v-3.477h.01Zm3.958 3.445.077-.318c.054.022.197.055.307.055.263 0 .723-.165.723-2.534v-.636h2.248v3.477H53.3V25.32h-1.48v.373c0 2.446-.493 2.786-1.03 2.786a1.275 1.275 0 0 1-.45-.077Zm5.088-3.445h2.51v.362h-2.127v1.185h1.897v.362h-1.897v1.217h2.15v.362h-2.544v-3.488h.01Zm4.079 0h.394v2.084l1.996-2.084h.504l-1.49 1.525 1.556 1.963h-.493l-1.338-1.69-.746.747v.932h-.394v-3.477h.01Zm4.023 1.744c0-.987.735-1.799 1.766-1.799.636 0 .998.23 1.349.56l-.263.274c-.297-.274-.626-.483-1.097-.483-.767 0-1.349.626-1.349 1.437 0 .801.581 1.437 1.349 1.437.483 0 .79-.186 1.118-.504l.264.274c-.362.373-.757.592-1.393.592-1.009.011-1.743-.779-1.743-1.788Zm4.562-1.744h.395v1.547h2.006v-1.547h.395v3.477h-.395v-1.557h-2.006v1.568h-.395v-3.488Zm4.375 1.744c0-.965.724-1.799 1.776-1.799 1.064 0 1.766.834 1.766 1.8 0 .964-.724 1.798-1.777 1.798-1.052 0-1.765-.823-1.765-1.799Zm3.147 0c0-.79-.581-1.437-1.37-1.437-.801 0-1.36.637-1.36 1.437 0 .79.58 1.437 1.37 1.437.79 0 1.36-.636 1.36-1.437Zm1.974-1.744h2.51v.362h-2.127v1.185h1.897v.362h-1.897v1.217h2.15v.362h-2.544v-3.488h.01Zm6.315 0h2.742v3.477h-.395v-3.126h-1.963v3.126h-.394v-3.477h.01Zm4.474 0h1.305c.79 0 1.305.417 1.305 1.119 0 .746-.625 1.14-1.37 1.14h-.845v1.23h-.395v-3.489Zm1.261 1.898c.581 0 .954-.308.954-.78 0-.493-.373-.756-.932-.756h-.877v1.536h.855Zm2.654-.154c0-.965.723-1.799 1.776-1.799 1.064 0 1.765.834 1.765 1.8 0 .964-.723 1.798-1.776 1.798s-1.765-.823-1.765-1.799Zm3.147 0c0-.79-.582-1.437-1.371-1.437-.79 0-1.36.637-1.36 1.437 0 .79.581 1.437 1.37 1.437.79 0 1.36-.636 1.36-1.437Zm1.984-1.744h2.511v.362h-2.127v1.185h1.897v.362h-1.897v1.217h2.15v.362h-2.545v-3.488h.011Zm4.079 0h.395v2.084l1.996-2.084h.504l-1.491 1.525 1.557 1.963h-.494l-1.337-1.69-.746.747v.932h-.395v-3.477h.011Zm5.241.362h-1.173v-.362h2.73v.362h-1.173v3.126h-.395V25.32h.011Zm3.049-.362h.394v2.885l2.084-2.885h.373v3.477h-.384V25.55l-2.073 2.885h-.383v-3.477h-.011Zm4.572 0h1.305c.789 0 1.305.417 1.305 1.119 0 .746-.625 1.14-1.371 1.14h-.844v1.23h-.395v-3.489Zm1.25 1.898c.581 0 .954-.308.954-.78 0-.493-.373-.756-.932-.756h-.877v1.536h.855Zm2.664-.154c0-.965.724-1.799 1.777-1.799 1.063 0 1.765.834 1.765 1.8 0 .964-.724 1.798-1.776 1.798-1.064 0-1.766-.823-1.766-1.799Zm3.136 0c0-.79-.581-1.437-1.37-1.437-.801 0-1.36.637-1.36 1.437 0 .79.581 1.437 1.371 1.437.789 0 1.359-.636 1.359-1.437Zm1.985-1.744h1.48c.395 0 .713.11.91.307.143.154.22.33.22.57 0 .45-.274.692-.549.801.417.12.746.362.746.856 0 .592-.504.954-1.261.954h-1.546v-3.488Zm1.415 1.558c.471 0 .8-.209.8-.637 0-.34-.274-.57-.768-.57h-1.063v1.196h1.031v.01Zm.142 1.58c.526 0 .855-.231.855-.637 0-.373-.318-.592-.921-.592h-1.096v1.228h1.162Zm3.969-3.159h.373l1.59 3.51h-.428l-.405-.922h-1.897l-.417.921h-.406l1.59-3.51Zm.965 2.237-.789-1.777-.801 1.777h1.59Zm2.424-2.216h.394v1.547h2.007v-1.547h.395v3.477h-.395v-1.557h-2.007v1.568h-.394v-3.488Zm4.517 0h.395v2.885l2.083-2.885h.373v3.477h-.384V25.55l-2.072 2.885h-.384v-3.477h-.011Zm4.583 0h2.511v.362h-2.127v1.185h1.897v.362h-1.897v1.217h2.149v.362h-2.544v-3.488h.011Z" fill="#111"/><path fill-rule="evenodd" clip-rule="evenodd" d="M13.947 12.662 6.053 26.404l-1.097 1.909a.377.377 0 0 1-.131.131.322.322 0 0 1-.176.044H2.982a.322.322 0 0 1-.175-.044.347.347 0 0 1-.175-.307c0-.054.01-.12.043-.175l.625-1.086L13.224 9.6l.625-1.086a.378.378 0 0 1 .131-.131.321.321 0 0 1 .176-.044c.066 0 .12.01.175.044a.378.378 0 0 1 .132.131l.625 1.086 4.079 7.097 1.096 1.898c.033.055.044.12.044.175a.34.34 0 0 1-.044.176l-1.096 1.897-1.93 3.357a.378.378 0 0 1-.132.131.322.322 0 0 1-.175.044h-1.667a.322.322 0 0 1-.175-.044.347.347 0 0 1-.175-.307c0-.055.01-.12.043-.175l2.84-4.958a.287.287 0 0 0 .033-.12.221.221 0 0 0-.033-.121l-3.443-5.99a.172.172 0 0 0-.088-.087.22.22 0 0 0-.12-.033.22.22 0 0 0-.12.033.624.624 0 0 0-.078.088Z" fill="#2C56DB"/><path fill-rule="evenodd" clip-rule="evenodd" d="m15.417 18.737-4.145 7.229a.285.285 0 0 0-.033.12c0 .044.011.088.033.121.022.044.055.077.088.088a.221.221 0 0 0 .12.033h6.875a.221.221 0 0 0 .12-.033.334.334 0 0 0 .089-.088l1.809-3.137.92-1.602a.379.379 0 0 1 .133-.131.322.322 0 0 1 .175-.044.32.32 0 0 1 .175.044.378.378 0 0 1 .132.131l.833 1.448a.348.348 0 0 1 .044.176c0 .055-.01.12-.044.175l-1.096 1.898-.713 1.24-1.096 1.908a.379.379 0 0 1-.132.132.322.322 0 0 1-.175.043H7.939a.322.322 0 0 1-.176-.043.347.347 0 0 1-.175-.307c0-.055.01-.121.044-.176l.92-1.601.845-1.481 4.561-7.953a.377.377 0 0 1 .132-.131.321.321 0 0 1 .175-.044c.066 0 .121.01.176.044a.377.377 0 0 1 .131.131l.834 1.448a.348.348 0 0 1 .044.176c.022.066 0 .131-.033.186Z" fill="#4B8AF9"/><path d="M24.178 28.533a1.228 1.228 0 1 0 0-2.456 1.228 1.228 0 0 0 0 2.456Z" fill="#F72323"/></svg>