<svg width="240" height="59" fill="none" xmlns="http://www.w3.org/2000/svg"><path d="M55.965 20.734h7.158c-.632-2.282-2.526-3.931-4.948-3.931-1.754 0-3.245.666-4.578 1.842l-2.123-2.65c1.579-1.474 3.526-2.65 6.684-2.65 5.368 0 9.123 4.072 9.123 9.056 0 5.072-3.825 9.056-8.983 9.056-3.368 0-5.509-1.018-7.298-2.949l2.368-2.58C54.772 27.21 56.123 28 58.175 28c2.527 0 4.404-1.72 4.983-4.072h-7.175v-3.194h-.018Zm14.315 1.685c0-4.985 3.93-9.056 9.334-9.056s9.28 4.036 9.28 9.056c0 4.984-3.929 9.055-9.333 9.055-5.403 0-9.28-4.036-9.28-9.055Zm14.597 0c0-3.002-2.193-5.511-5.298-5.511s-5.246 2.457-5.246 5.51c0 3.002 2.193 5.511 5.299 5.511 3.105 0 5.245-2.457 5.245-5.51Zm7.825-8.758h4.158l4.596 7.406 4.597-7.406h4.158v17.515h-3.825V19.751l-4.93 7.459h-.105l-4.877-7.406v11.355h-3.772V13.66Zm21.228 7.933h7.702v3.65h-7.702v-3.65Zm11.438-7.933h14.614v17.515h-3.859v-14.04h-6.895v14.04h-3.86V13.661Zm19.176 0h7.158c4.175 0 6.701 2.475 6.701 6.107 0 4.055-3.157 6.16-7.07 6.16h-2.93v5.248h-3.859V13.661Zm6.912 8.828c1.93 0 3.053-1.159 3.053-2.703 0-1.72-1.193-2.65-3.123-2.65h-2.983v5.353h3.053Zm9.404-.07c0-4.985 3.929-9.056 9.333-9.056 5.403 0 9.281 4.036 9.281 9.056 0 4.984-3.93 9.055-9.334 9.055-5.403 0-9.28-4.036-9.28-9.055Zm14.579 0c0-3.002-2.193-5.511-5.299-5.511-3.105 0-5.245 2.457-5.245 5.51 0 3.002 2.193 5.511 5.298 5.511 3.088-.017 5.246-2.457 5.246-5.51Zm7.824-8.758h13.211v3.422h-9.386v3.546h8.245v3.422h-8.245v3.685h9.509v3.422h-13.334V13.662Zm17.141 0h3.859v7.652l7.105-7.652h4.65l-7.123 7.424 7.456 10.073h-4.632l-5.421-7.458-2.017 2.106v5.352h-3.86V13.662h-.017Zm22.701 3.545h-5.333v-3.545h14.509v3.545h-5.334V31.16h-3.859V17.206h.017ZM51.491 39.934h.632v3.334l3.193-3.334h.807l-2.386 2.439 2.491 3.142h-.79l-2.14-2.703-1.193 1.193v1.492h-.631v-5.563h.017Zm6.421 2.79c0-1.544 1.158-2.878 2.843-2.878 1.701 0 2.824 1.334 2.824 2.878s-1.158 2.878-2.842 2.878c-1.684 0-2.825-1.316-2.825-2.878Zm5.035 0c0-1.264-.93-2.3-2.193-2.3-1.28 0-2.175 1.019-2.175 2.3 0 1.264.93 2.299 2.193 2.299s2.175-1.018 2.175-2.3Zm3.158-2.79h.632l2.035 3.036 2.035-3.036h.632v5.563h-.632v-4.51l-2.035 2.983h-.018l-2.035-2.983v4.51h-.614v-5.563Zm8.105 0h4.387v5.563h-.632v-5.002h-3.14v5.002h-.632v-5.563h.018Zm6.334 5.51.123-.509c.087.035.316.088.491.088.421 0 1.158-.263 1.158-4.054v-1.018h3.596v5.563h-.631v-5.001h-2.369v.596c0 3.914-.79 4.458-1.649 4.458-.245.018-.579-.07-.72-.123Zm8.14-5.51h4.018v.579h-3.404v1.895h3.035v.58h-3.035v1.947h3.439v.58h-4.07v-5.581h.017Zm6.526 0h.632v3.334l3.193-3.334h.807l-2.386 2.439 2.491 3.142h-.79l-2.14-2.703-1.192 1.193v1.492h-.632v-5.563h.017Zm6.439 2.79c0-1.58 1.176-2.878 2.825-2.878 1.017 0 1.596.368 2.158.895l-.421.438c-.474-.438-1-.772-1.755-.772-1.228 0-2.158 1-2.158 2.3 0 1.28.93 2.298 2.158 2.298.772 0 1.263-.298 1.79-.807l.421.439c-.579.596-1.211.948-2.228.948-1.614.017-2.79-1.246-2.79-2.861Zm7.298-2.79h.632v2.474h3.21v-2.474h.632v5.563h-.632v-2.492h-3.21v2.51h-.632v-5.581Zm7.001 2.79c0-1.544 1.157-2.878 2.842-2.878 1.701 0 2.824 1.334 2.824 2.878s-1.158 2.878-2.842 2.878c-1.684 0-2.824-1.316-2.824-2.878Zm5.035 0c0-1.264-.93-2.3-2.193-2.3-1.281 0-2.176 1.019-2.176 2.3 0 1.264.93 2.299 2.193 2.299s2.176-1.018 2.176-2.3Zm3.157-2.79h4.018v.579h-3.403v1.895h3.035v.58h-3.035v1.947h3.438v.58h-4.07v-5.581h.017Zm10.106 0h4.386v5.563H138v-5.002h-3.14v5.002h-.632v-5.563h.018Zm7.158 0h2.087c1.263 0 2.088.666 2.088 1.79 0 1.193-1 1.825-2.193 1.825h-1.351v1.965h-.631v-5.58Zm2.017 3.036c.93 0 1.526-.492 1.526-1.246 0-.79-.596-1.211-1.491-1.211h-1.403v2.457h1.368Zm4.246-.246c0-1.544 1.158-2.878 2.842-2.878 1.702 0 2.824 1.334 2.824 2.878s-1.157 2.878-2.842 2.878c-1.684 0-2.824-1.316-2.824-2.878Zm5.035 0c0-1.264-.93-2.3-2.193-2.3s-2.176 1.019-2.176 2.3c0 1.264.93 2.299 2.193 2.299 1.264 0 2.176-1.018 2.176-2.3Zm3.175-2.79h4.018v.579h-3.404v1.895h3.035v.58h-3.035v1.947h3.439v.58h-4.07v-5.581h.017Zm6.527 0h.631v3.334l3.193-3.334h.807l-2.386 2.439 2.491 3.142h-.789l-2.14-2.703-1.193 1.193v1.492h-.632v-5.563h.018Zm8.386.579h-1.878v-.58h4.369v.58h-1.877v5.002h-.632v-5.002h.018Zm4.877-.579h.631v4.615l3.334-4.615h.596v5.563h-.614V40.88l-3.316 4.616h-.614v-5.563h-.017Zm7.316 0h2.087c1.263 0 2.088.666 2.088 1.79 0 1.193-1 1.825-2.193 1.825h-1.351v1.965h-.631v-5.58Zm2 3.036c.929 0 1.526-.492 1.526-1.246 0-.79-.597-1.211-1.491-1.211h-1.404v2.457h1.369Zm4.263-.246c0-1.544 1.158-2.878 2.842-2.878 1.702 0 2.824 1.334 2.824 2.878s-1.158 2.878-2.842 2.878c-1.701 0-2.824-1.316-2.824-2.878Zm5.017 0c0-1.264-.93-2.3-2.193-2.3-1.28 0-2.175 1.019-2.175 2.3 0 1.264.93 2.299 2.193 2.299s2.175-1.018 2.175-2.3Zm3.176-2.79h2.368c.632 0 1.141.175 1.456.491.228.246.351.527.351.913 0 .72-.438 1.105-.877 1.28.667.194 1.193.58 1.193 1.37 0 .947-.807 1.526-2.018 1.526h-2.473v-5.58Zm2.263 2.492c.754 0 1.281-.334 1.281-1.018 0-.544-.439-.913-1.228-.913h-1.702v1.913h1.649v.018Zm.228 2.527c.842 0 1.368-.369 1.368-1.018 0-.597-.508-.948-1.473-.948h-1.755v1.966h1.86Zm6.351-5.055h.596l2.544 5.616h-.684l-.649-1.474h-3.035l-.667 1.474h-.649l2.544-5.616Zm1.544 3.58-1.264-2.843-1.28 2.844h2.544Zm3.877-3.544h.631v2.474h3.211v-2.474h.632v5.563h-.632v-2.492h-3.211v2.51h-.631v-5.581Zm7.228 0h.632v4.615l3.333-4.615h.596v5.563h-.614V40.88l-3.315 4.616h-.615v-5.563h-.017Zm7.333 0h4.018v.579h-3.404v1.895h3.035v.58h-3.035v1.947h3.439v.58h-4.07v-5.581h.017Z" fill="#fff"/><path fill-rule="evenodd" clip-rule="evenodd" d="M22.316 20.26 9.684 42.25 7.93 45.304a.604.604 0 0 1-.21.21.514.514 0 0 1-.281.07H4.772a.514.514 0 0 1-.28-.07.604.604 0 0 1-.211-.21.556.556 0 0 1-.07-.281c0-.088.017-.193.07-.28l1-1.738 15.877-27.642 1-1.737a.607.607 0 0 1 .21-.21.515.515 0 0 1 .281-.07c.105 0 .193.017.28.07a.606.606 0 0 1 .211.21l1 1.738 6.527 11.354 1.754 3.036c.053.088.07.194.07.281a.556.556 0 0 1-.07.281l-1.754 3.036-3.088 5.37a.606.606 0 0 1-.21.211.515.515 0 0 1-.281.07H24.42a.515.515 0 0 1-.28-.07.606.606 0 0 1-.211-.21.555.555 0 0 1-.07-.281c0-.088.017-.193.07-.281l4.544-7.933a.458.458 0 0 0 .052-.193c0-.07-.017-.14-.052-.193l-5.509-9.582a.272.272 0 0 0-.14-.14.353.353 0 0 0-.193-.053c-.07 0-.14.017-.193.052-.035.036-.088.088-.123.14Z" fill="#2C56DB"/><path fill-rule="evenodd" clip-rule="evenodd" d="m24.667 29.983-6.632 11.565a.457.457 0 0 0-.052.193c0 .07.017.14.052.193.035.07.088.123.14.14a.354.354 0 0 0 .194.053h11a.35.35 0 0 0 .192-.052.533.533 0 0 0 .14-.14l2.895-5.02 1.474-2.562a.606.606 0 0 1 .21-.211.515.515 0 0 1 .281-.07c.106 0 .193.017.281.07a.606.606 0 0 1 .21.21l1.334 2.317c.053.088.07.193.07.281a.556.556 0 0 1-.07.28l-1.754 3.037-1.14 1.983-1.755 3.054a.604.604 0 0 1-.21.21.514.514 0 0 1-.281.07H12.702a.514.514 0 0 1-.28-.07.555.555 0 0 1-.28-.491.526.526 0 0 1 .069-.28l1.473-2.563 1.351-2.37 7.298-12.723a.604.604 0 0 1 .21-.21.514.514 0 0 1 .282-.07c.105 0 .193.017.28.07a.604.604 0 0 1 .21.21l1.334 2.317a.55.55 0 0 1 .07.28c.035.106 0 .21-.052.299Z" fill="#4B8AF9"/><path d="M38.684 45.655a1.965 1.965 0 1 0 0-3.93 1.965 1.965 0 0 0 0 3.93Z" fill="#F72323"/></svg>