<svg width="150" height="37" viewBox="0 0 150 37" fill="none" xmlns="http://www.w3.org/2000/svg">
<path d="M34.9781 12.9577H39.4518C39.057 11.5317 37.8728 10.5007 36.3597 10.5007C35.2632 10.5007 34.3311 10.9175 33.4978 11.6524L32.1711 9.99612C33.1579 9.07475 34.375 8.33984 36.3487 8.33984C39.704 8.33984 42.0504 10.8846 42.0504 13.9997C42.0504 17.1697 39.6601 19.6596 36.4364 19.6596C34.3311 19.6596 32.9934 19.0234 31.875 17.8168L33.3553 16.2044C34.2325 17.0051 35.0768 17.4987 36.3597 17.4987C37.9386 17.4987 39.1118 16.4238 39.4737 14.954H34.989V12.9577H34.9781Z" fill="#111111"/>
<path d="M43.9254 14.0114C43.9254 10.8963 46.3816 8.35156 49.7587 8.35156C53.1359 8.35156 55.5592 10.8744 55.5592 14.0114C55.5592 17.1266 53.103 19.6713 49.7259 19.6713C46.3487 19.6713 43.9254 17.1485 43.9254 14.0114ZM53.0482 14.0114C53.0482 12.1358 51.6776 10.5672 49.7368 10.5672C47.796 10.5672 46.4583 12.1029 46.4583 14.0114C46.4583 15.8871 47.8289 17.4556 49.7697 17.4556C51.7105 17.4556 53.0482 15.92 53.0482 14.0114Z" fill="#111111"/>
<path d="M57.9386 8.53711H60.5373L63.4101 13.1659L66.2829 8.53711H68.8816V19.4839H66.4912V12.3433L63.4101 17.005H63.3443L60.2961 12.3762V19.4729H57.9386V8.53711Z" fill="#111111"/>
<path d="M71.2062 13.4961H76.0198V15.7776H71.2062V13.4961Z" fill="#111111"/>
<path d="M78.3552 8.53711H87.489V19.4839H85.0767V10.7089H80.7675V19.4839H78.3552V8.53711Z" fill="#111111"/>
<path d="M90.34 8.53711H94.8137C97.4233 8.53711 99.0023 10.0837 99.0023 12.3542C99.0023 14.888 97.0286 16.2043 94.5834 16.2043H92.7522V19.4839H90.34V8.53711ZM94.6601 14.0544C95.8663 14.0544 96.568 13.3304 96.568 12.3652C96.568 11.2903 95.8224 10.7089 94.6163 10.7089H92.7522V14.0544H94.6601Z" fill="#111111"/>
<path d="M100.537 14.0114C100.537 10.8963 102.993 8.35156 106.371 8.35156C109.748 8.35156 112.171 10.8744 112.171 14.0114C112.171 17.1266 109.715 19.6713 106.338 19.6713C102.96 19.6713 100.537 17.1485 100.537 14.0114ZM109.649 14.0114C109.649 12.1358 108.278 10.5672 106.338 10.5672C104.397 10.5672 103.059 12.1029 103.059 14.0114C103.059 15.8871 104.43 17.4556 106.371 17.4556C108.3 17.4446 109.649 15.92 109.649 14.0114Z" fill="#111111"/>
<path d="M114.539 8.53711H122.796V10.676H116.93V12.8917H122.083V15.0306H116.93V17.334H122.873V19.4729H114.539V8.53711Z" fill="#111111"/>
<path d="M125.252 8.53711H127.664V13.3195L132.105 8.53711H135.011L130.559 13.1769L135.219 19.4729H132.325L128.936 14.8112L127.675 16.1275V19.4729H125.263V8.53711H125.252Z" fill="#111111"/>
<path d="M139.441 10.7528H136.107V8.53711H145.175V10.7528H141.842V19.4729H139.43V10.7528H139.441Z" fill="#111111"/>
<path d="M32.182 24.957H32.5767V27.0411L34.5723 24.957H35.0767L33.5855 26.4817L35.1425 28.4451H34.6491L33.3114 26.7559L32.5658 27.5018V28.4341H32.171V24.957H32.182Z" fill="#111111"/>
<path d="M36.1952 26.7012C36.1952 25.736 36.9189 24.9023 37.9715 24.9023C39.0351 24.9023 39.7369 25.736 39.7369 26.7012C39.7369 27.6665 39.0132 28.5001 37.9605 28.5001C36.9079 28.5001 36.1952 27.6774 36.1952 26.7012ZM39.3421 26.7012C39.3421 25.9115 38.761 25.2643 37.9715 25.2643C37.1711 25.2643 36.6119 25.9005 36.6119 26.7012C36.6119 27.491 37.193 28.1381 37.9825 28.1381C38.7719 28.1381 39.3421 27.5019 39.3421 26.7012Z" fill="#111111"/>
<path d="M41.3158 24.957H41.7105L42.9825 26.8546L44.2544 24.957H44.6491V28.4341H44.2544V25.6152L42.9825 27.4798H42.9715L41.6996 25.6152V28.4341H41.3158V24.957Z" fill="#111111"/>
<path d="M46.3816 24.957H49.1228V28.4341H48.7281V25.308H46.7653V28.4341H46.3706V24.957H46.3816Z" fill="#111111"/>
<path d="M50.3398 28.402L50.4166 28.0839C50.4714 28.1058 50.614 28.1387 50.7236 28.1387C50.9868 28.1387 51.4473 27.9742 51.4473 25.6049V24.9688H53.6951V28.4458H53.3004V25.3197H51.8201V25.6927C51.8201 28.1387 51.3267 28.4787 50.7894 28.4787C50.6359 28.4897 50.4276 28.4349 50.3398 28.402Z" fill="#111111"/>
<path d="M55.4276 24.957H57.9386V25.319H55.8114V26.5036H57.7083V26.8656H55.8114V28.0831H57.9605V28.4451H55.4166V24.957H55.4276Z" fill="#111111"/>
<path d="M59.5066 24.957H59.9013V27.0411L61.8969 24.957H62.4013L60.9101 26.4817L62.4671 28.4451H61.9737L60.636 26.7559L59.8903 27.5018V28.4341H59.4956V24.957H59.5066Z" fill="#111111"/>
<path d="M63.5306 26.7012C63.5306 25.714 64.2653 24.9023 65.296 24.9023C65.932 24.9023 66.2938 25.1327 66.6447 25.4617L66.3815 25.736C66.0855 25.4617 65.7565 25.2533 65.285 25.2533C64.5175 25.2533 63.9363 25.8786 63.9363 26.6902C63.9363 27.491 64.5175 28.1272 65.285 28.1272C65.7675 28.1272 66.0745 27.9407 66.4035 27.6226L66.6666 27.8968C66.3048 28.2697 65.91 28.4891 65.2741 28.4891C64.2653 28.5001 63.5306 27.7103 63.5306 26.7012Z" fill="#111111"/>
<path d="M68.092 24.957H68.4868V26.5036H70.4934V24.957H70.8881V28.4341H70.4934V26.8766H68.4868V28.4451H68.092V24.957Z" fill="#111111"/>
<path d="M72.467 26.7012C72.467 25.736 73.1907 24.9023 74.2434 24.9023C75.307 24.9023 76.0087 25.736 76.0087 26.7012C76.0087 27.6665 75.285 28.5001 74.2324 28.5001C73.1798 28.5001 72.467 27.6774 72.467 26.7012ZM75.614 26.7012C75.614 25.9115 75.0328 25.2643 74.2434 25.2643C73.4429 25.2643 72.8837 25.9005 72.8837 26.7012C72.8837 27.491 73.4648 28.1381 74.2543 28.1381C75.0438 28.1381 75.614 27.5019 75.614 26.7012Z" fill="#111111"/>
<path d="M77.5876 24.957H80.0986V25.319H77.9714V26.5036H79.8683V26.8656H77.9714V28.0831H80.1205V28.4451H77.5767V24.957H77.5876Z" fill="#111111"/>
<path d="M83.9035 24.957H86.6448V28.4341H86.25V25.308H84.2873V28.4341H83.8926V24.957H83.9035Z" fill="#111111"/>
<path d="M88.3772 24.957H89.682C90.4715 24.957 90.9869 25.3738 90.9869 26.0758C90.9869 26.8217 90.3619 27.2166 89.6162 27.2166H88.7719V28.4451H88.3772V24.957ZM89.6382 26.8546C90.2193 26.8546 90.5921 26.5475 90.5921 26.0758C90.5921 25.5823 90.2193 25.319 89.6601 25.319H88.7829V26.8546H89.6382Z" fill="#111111"/>
<path d="M92.2916 26.7012C92.2916 25.736 93.0153 24.9023 94.0679 24.9023C95.1315 24.9023 95.8333 25.736 95.8333 26.7012C95.8333 27.6665 95.1096 28.5001 94.057 28.5001C93.0043 28.5001 92.2916 27.6774 92.2916 26.7012ZM95.4386 26.7012C95.4386 25.9115 94.8574 25.2643 94.0679 25.2643C93.2785 25.2643 92.7083 25.9005 92.7083 26.7012C92.7083 27.491 93.2894 28.1381 94.0789 28.1381C94.8684 28.1381 95.4386 27.5019 95.4386 26.7012Z" fill="#111111"/>
<path d="M97.4232 24.957H99.9342V25.319H97.807V26.5036H99.7039V26.8656H97.807V28.0831H99.9561V28.4451H97.4122V24.957H97.4232Z" fill="#111111"/>
<path d="M101.502 24.957H101.897V27.0411L103.893 24.957H104.397L102.906 26.4817L104.463 28.4451H103.969L102.632 26.7559L101.886 27.5018V28.4341H101.491V24.957H101.502Z" fill="#111111"/>
<path d="M106.743 25.319H105.57V24.957H108.3V25.319H107.127V28.4451H106.732V25.319H106.743Z" fill="#111111"/>
<path d="M109.792 24.957H110.186V27.8418L112.27 24.957H112.643V28.4341H112.259V25.5493L110.186 28.4341H109.803V24.957H109.792Z" fill="#111111"/>
<path d="M114.364 24.957H115.669C116.458 24.957 116.974 25.3738 116.974 26.0758C116.974 26.8217 116.349 27.2166 115.603 27.2166H114.759V28.4451H114.364V24.957ZM115.614 26.8546C116.195 26.8546 116.568 26.5475 116.568 26.0758C116.568 25.5823 116.195 25.319 115.636 25.319H114.759V26.8546H115.614Z" fill="#111111"/>
<path d="M118.278 26.7012C118.278 25.736 119.002 24.9023 120.055 24.9023C121.118 24.9023 121.82 25.736 121.82 26.7012C121.82 27.6665 121.096 28.5001 120.044 28.5001C118.98 28.5001 118.278 27.6774 118.278 26.7012ZM121.414 26.7012C121.414 25.9115 120.833 25.2643 120.044 25.2643C119.243 25.2643 118.684 25.9005 118.684 26.7012C118.684 27.491 119.265 28.1381 120.055 28.1381C120.844 28.1381 121.414 27.5019 121.414 26.7012Z" fill="#111111"/>
<path d="M123.399 24.957H124.879C125.274 24.957 125.592 25.0667 125.789 25.2642C125.932 25.4177 126.009 25.5932 126.009 25.8345C126.009 26.2842 125.735 26.5256 125.46 26.6352C125.877 26.7559 126.206 26.9972 126.206 27.4908C126.206 28.0831 125.702 28.4451 124.945 28.4451H123.399V24.957ZM124.814 26.5146C125.285 26.5146 125.614 26.3062 125.614 25.8784C125.614 25.5384 125.34 25.308 124.846 25.308H123.783V26.5036H124.814V26.5146ZM124.956 28.0941C125.482 28.0941 125.811 27.8637 125.811 27.4579C125.811 27.085 125.493 26.8656 124.89 26.8656H123.794V28.0941H124.956Z" fill="#111111"/>
<path d="M128.925 24.9355H129.298L130.888 28.4455H130.46L130.055 27.5242H128.158L127.741 28.4455H127.335L128.925 24.9355ZM129.89 27.1732L129.101 25.3962L128.3 27.1732H129.89Z" fill="#111111"/>
<path d="M132.314 24.957H132.708V26.5036H134.715V24.957H135.11V28.4341H134.715V26.8766H132.708V28.4451H132.314V24.957Z" fill="#111111"/>
<path d="M136.831 24.957H137.226V27.8418L139.309 24.957H139.682V28.4341H139.298V25.5493L137.226 28.4341H136.842V24.957H136.831Z" fill="#111111"/>
<path d="M141.414 24.957H143.925V25.319H141.798V26.5036H143.695V26.8656H141.798V28.0831H143.947V28.4451H141.403V24.957H141.414Z" fill="#111111"/>
<path fill-rule="evenodd" clip-rule="evenodd" d="M13.9474 12.6615L6.05265 26.4054L4.95615 28.3139C4.92326 28.3688 4.8794 28.4126 4.82458 28.4455C4.76975 28.4784 4.71493 28.4894 4.64914 28.4894H4.23247H2.98247C2.91668 28.4894 2.86185 28.4784 2.80703 28.4455C2.75221 28.4126 2.70835 28.3688 2.67545 28.3139C2.64256 28.2591 2.63159 28.1933 2.63159 28.1384C2.63159 28.0836 2.64256 28.0178 2.67545 27.9629L3.30045 26.877L13.2237 9.60125L13.8487 8.51534C13.8816 8.4605 13.9255 8.41662 13.9803 8.38372C14.0351 8.35081 14.0899 8.33984 14.1557 8.33984C14.2215 8.33984 14.2763 8.35081 14.3312 8.38372C14.386 8.41662 14.4298 8.4605 14.4627 8.51534L15.0877 9.60125L19.1667 16.698L20.2632 18.5956C20.2961 18.6505 20.307 18.7163 20.307 18.7711C20.307 18.826 20.2961 18.8918 20.2632 18.9466L19.1667 20.8442L17.2369 24.2006C17.204 24.2555 17.1601 24.2994 17.1053 24.3323C17.0505 24.3652 16.9956 24.3761 16.9298 24.3761H15.2632C15.1974 24.3761 15.1426 24.3652 15.0877 24.3323C15.0329 24.2994 14.9891 24.2555 14.9562 24.2006C14.9233 24.1458 14.9123 24.08 14.9123 24.0251C14.9123 23.9703 14.9233 23.9045 14.9562 23.8496L17.7961 18.8918C17.818 18.8479 17.829 18.804 17.829 18.7711C17.829 18.7272 17.818 18.6834 17.7961 18.6505L14.3531 12.6615C14.3312 12.6177 14.2983 12.5847 14.2654 12.5738C14.2325 12.5518 14.1886 12.5409 14.1448 12.5409C14.1009 12.5409 14.057 12.5518 14.0241 12.5738C14.0022 12.5957 13.9693 12.6286 13.9474 12.6615Z" fill="#2C56DB"/>
<path fill-rule="evenodd" clip-rule="evenodd" d="M15.4167 18.7373L11.272 25.9657C11.25 26.0096 11.2391 26.0534 11.2391 26.0863C11.2391 26.1302 11.25 26.1741 11.272 26.207C11.2939 26.2509 11.3268 26.2838 11.3597 26.2948C11.3926 26.3167 11.4365 26.3277 11.4803 26.3277H18.3553C18.3992 26.3277 18.443 26.3167 18.4759 26.2948C18.5088 26.2728 18.5417 26.2399 18.5636 26.207L20.3729 23.0699L21.2939 21.4685C21.3268 21.4137 21.3707 21.3698 21.4255 21.3369C21.4803 21.304 21.5351 21.293 21.6009 21.293C21.6667 21.293 21.7215 21.304 21.7764 21.3369C21.8312 21.3698 21.875 21.4137 21.9079 21.4685L22.7413 22.9164C22.7742 22.9712 22.7851 23.037 22.7851 23.0919C22.7851 23.1467 22.7742 23.2125 22.7413 23.2674L21.6448 25.165L20.9321 26.4044L19.8356 28.313C19.8027 28.3678 19.7588 28.4117 19.704 28.4446C19.6492 28.4775 19.5943 28.4885 19.5286 28.4885H17.3465H9.78075H7.93865C7.87286 28.4885 7.81803 28.4775 7.76321 28.4446C7.70838 28.4117 7.66452 28.3678 7.63163 28.313C7.59873 28.2582 7.58777 28.1923 7.58777 28.1375C7.58777 28.0827 7.59873 28.0168 7.63163 27.962L8.55268 26.3606L9.39698 24.8798L13.9584 16.9275C13.9913 16.8726 14.0351 16.8287 14.09 16.7958C14.1448 16.7629 14.1996 16.752 14.2654 16.752C14.3312 16.752 14.386 16.7629 14.4408 16.7958C14.4957 16.8287 14.5395 16.8726 14.5724 16.9275L15.4058 18.3753C15.4386 18.4302 15.4496 18.496 15.4496 18.5508C15.4715 18.6166 15.4496 18.6824 15.4167 18.7373Z" fill="#4B8AF9"/>
<path d="M24.1777 28.5332C24.8559 28.5332 25.4057 27.9832 25.4057 27.3047C25.4057 26.6262 24.8559 26.0762 24.1777 26.0762C23.4994 26.0762 22.9496 26.6262 22.9496 27.3047C22.9496 27.9832 23.4994 28.5332 24.1777 28.5332Z" fill="#F72323"/>
</svg>
