<svg width="240" height="59" viewBox="0 0 240 59" fill="none" xmlns="http://www.w3.org/2000/svg">
<path d="M55.9649 20.7338H63.1228C62.4912 18.4523 60.5965 16.8026 58.1754 16.8026C56.4211 16.8026 54.9298 17.4695 53.5965 18.6453L51.4737 15.9953C53.0526 14.5211 55 13.3452 58.1579 13.3452C63.5263 13.3452 67.2807 17.4168 67.2807 22.401C67.2807 27.473 63.4561 31.4568 58.2982 31.4568C54.9298 31.4568 52.7895 30.4389 51 28.5084L53.3684 25.9286C54.7719 27.2097 56.1228 27.9995 58.1754 27.9995C60.7018 27.9995 62.579 26.2796 63.1579 23.9279H55.9825V20.7338H55.9649Z" fill="white"/>
<path d="M70.2808 22.4186C70.2808 17.4344 74.2106 13.3628 79.6141 13.3628C85.0176 13.3628 88.8948 17.3993 88.8948 22.4186C88.8948 27.4028 84.965 31.4744 79.5615 31.4744C74.1579 31.4744 70.2808 27.4379 70.2808 22.4186ZM84.8773 22.4186C84.8773 19.4175 82.6843 16.9079 79.579 16.9079C76.4737 16.9079 74.3334 19.3649 74.3334 22.4186C74.3334 25.4196 76.5264 27.9293 79.6316 27.9293C82.7369 27.9293 84.8773 25.4723 84.8773 22.4186Z" fill="white"/>
<path d="M92.7018 13.6611H96.8597L101.456 21.0672L106.053 13.6611H110.211V31.176H106.386V19.751L101.456 27.2097H101.351L96.4737 19.8036V31.1585H92.7018V13.6611Z" fill="white"/>
<path d="M113.93 21.5938H121.632V25.2441H113.93V21.5938Z" fill="white"/>
<path d="M125.368 13.6611H139.982V31.176H136.123V17.136H129.228V31.176H125.368V13.6611Z" fill="white"/>
<path d="M144.544 13.6611H151.702C155.877 13.6611 158.403 16.1357 158.403 19.7685C158.403 23.8226 155.246 25.9286 151.333 25.9286H148.403V31.176H144.544V13.6611ZM151.456 22.4888C153.386 22.4888 154.509 21.3305 154.509 19.7861C154.509 18.0662 153.316 17.136 151.386 17.136H148.403V22.4888H151.456Z" fill="white"/>
<path d="M160.86 22.4186C160.86 17.4344 164.789 13.3628 170.193 13.3628C175.596 13.3628 179.474 17.3993 179.474 22.4186C179.474 27.4028 175.544 31.4744 170.14 31.4744C164.737 31.4744 160.86 27.4379 160.86 22.4186ZM175.439 22.4186C175.439 19.4175 173.246 16.9079 170.14 16.9079C167.035 16.9079 164.895 19.3649 164.895 22.4186C164.895 25.4196 167.088 27.9293 170.193 27.9293C173.281 27.9117 175.439 25.4723 175.439 22.4186Z" fill="white"/>
<path d="M183.263 13.6611H196.474V17.0834H187.088V20.6285H195.333V24.0507H187.088V27.7362H196.597V31.1585H183.263V13.6611Z" fill="white"/>
<path d="M200.404 13.6611H204.263V21.3129L211.368 13.6611H216.018L208.895 21.0848L216.351 31.1585H211.719L206.298 23.6997L204.281 25.8057V31.1585H200.421V13.6611H200.404Z" fill="white"/>
<path d="M223.105 17.2062H217.772V13.6611H232.281V17.2062H226.947V31.1585H223.088V17.2062H223.105Z" fill="white"/>
<path d="M51.4913 39.9336H52.1229V43.2681L55.3159 39.9336H56.1229L53.7369 42.373L56.2281 45.5145H55.4387L53.2983 42.8118L52.1053 44.0052V45.4969H51.4738V39.9336H51.4913Z" fill="white"/>
<path d="M57.9124 42.7239C57.9124 41.1795 59.0702 39.8457 60.7545 39.8457C62.4562 39.8457 63.579 41.1795 63.579 42.7239C63.579 44.2683 62.4211 45.6021 60.7369 45.6021C59.0527 45.6021 57.9124 44.2858 57.9124 42.7239ZM62.9474 42.7239C62.9474 41.4603 62.0176 40.4249 60.7545 40.4249C59.4738 40.4249 58.579 41.4428 58.579 42.7239C58.579 43.9875 59.5088 45.0229 60.772 45.0229C62.0352 45.0229 62.9474 44.005 62.9474 42.7239Z" fill="white"/>
<path d="M66.1053 39.9336H66.7369L68.772 42.9697L70.8071 39.9336H71.4387V45.4969H70.8071V40.9866L68.772 43.9701H68.7545L66.7194 40.9866V45.4969H66.1053V39.9336Z" fill="white"/>
<path d="M74.2107 39.9336H78.5966V45.4969H77.965V40.4952H74.8247V45.4969H74.1931V39.9336H74.2107Z" fill="white"/>
<path d="M80.5439 45.4443L80.6668 44.9354C80.7545 44.9705 80.9825 45.0231 81.158 45.0231C81.579 45.0231 82.3159 44.7599 82.3159 40.9691V39.9512H85.9124V45.5145H85.2808V40.5128H82.9124V41.1095C82.9124 45.0231 82.1229 45.5672 81.2632 45.5672C81.0176 45.5847 80.6843 45.497 80.5439 45.4443Z" fill="white"/>
<path d="M88.6843 39.9336H92.7018V40.5127H89.2983V42.4081H92.3334V42.9873H89.2983V44.9353H92.7369V45.5145H88.6667V39.9336H88.6843Z" fill="white"/>
<path d="M95.2105 39.9336H95.8421V43.2681L99.0351 39.9336H99.8421L97.4561 42.373L99.9474 45.5145H99.1579L97.0175 42.8118L95.8246 44.0052V45.4969H95.193V39.9336H95.2105Z" fill="white"/>
<path d="M101.649 42.7239C101.649 41.1444 102.825 39.8457 104.474 39.8457C105.491 39.8457 106.07 40.2143 106.632 40.7408L106.211 41.1795C105.737 40.7408 105.211 40.4073 104.456 40.4073C103.228 40.4073 102.298 41.4076 102.298 42.7063C102.298 43.9875 103.228 45.0054 104.456 45.0054C105.228 45.0054 105.719 44.707 106.246 44.1981L106.667 44.6368C106.088 45.2335 105.456 45.5846 104.439 45.5846C102.825 45.6021 101.649 44.3385 101.649 42.7239Z" fill="white"/>
<path d="M108.947 39.9336H109.579V42.4081H112.789V39.9336H113.421V45.4969H112.789V43.0048H109.579V45.5145H108.947V39.9336Z" fill="white"/>
<path d="M115.948 42.7239C115.948 41.1795 117.105 39.8457 118.79 39.8457C120.491 39.8457 121.614 41.1795 121.614 42.7239C121.614 44.2683 120.456 45.6021 118.772 45.6021C117.088 45.6021 115.948 44.2858 115.948 42.7239ZM120.983 42.7239C120.983 41.4603 120.053 40.4249 118.79 40.4249C117.509 40.4249 116.614 41.4428 116.614 42.7239C116.614 43.9875 117.544 45.0229 118.807 45.0229C120.07 45.0229 120.983 44.005 120.983 42.7239Z" fill="white"/>
<path d="M124.14 39.9336H128.158V40.5127H124.755V42.4081H127.79V42.9873H124.755V44.9353H128.193V45.5145H124.123V39.9336H124.14Z" fill="white"/>
<path d="M134.246 39.9336H138.632V45.4969H138V40.4952H134.86V45.4969H134.228V39.9336H134.246Z" fill="white"/>
<path d="M141.404 39.9336H143.491C144.754 39.9336 145.579 40.6005 145.579 41.7237C145.579 42.9171 144.579 43.5489 143.386 43.5489H142.035V45.5145H141.404V39.9336ZM143.421 42.9697C144.351 42.9697 144.947 42.4783 144.947 41.7237C144.947 40.9339 144.351 40.5127 143.456 40.5127H142.053V42.9697H143.421Z" fill="white"/>
<path d="M147.667 42.7239C147.667 41.1795 148.825 39.8457 150.509 39.8457C152.211 39.8457 153.333 41.1795 153.333 42.7239C153.333 44.2683 152.176 45.6021 150.491 45.6021C148.807 45.6021 147.667 44.2858 147.667 42.7239ZM152.702 42.7239C152.702 41.4603 151.772 40.4249 150.509 40.4249C149.246 40.4249 148.333 41.4428 148.333 42.7239C148.333 43.9875 149.263 45.0229 150.526 45.0229C151.79 45.0229 152.702 44.005 152.702 42.7239Z" fill="white"/>
<path d="M155.877 39.9336H159.895V40.5127H156.491V42.4081H159.526V42.9873H156.491V44.9353H159.93V45.5145H155.86V39.9336H155.877Z" fill="white"/>
<path d="M162.404 39.9336H163.035V43.2681L166.228 39.9336H167.035L164.649 42.373L167.14 45.5145H166.351L164.211 42.8118L163.018 44.0052V45.4969H162.386V39.9336H162.404Z" fill="white"/>
<path d="M170.79 40.5127H168.912V39.9336H173.281V40.5127H171.404V45.5145H170.772V40.5127H170.79Z" fill="white"/>
<path d="M175.667 39.9336H176.298V44.5492L179.632 39.9336H180.228V45.4969H179.614V40.8813L176.298 45.4969H175.684V39.9336H175.667Z" fill="white"/>
<path d="M182.983 39.9336H185.07C186.333 39.9336 187.158 40.6005 187.158 41.7237C187.158 42.9171 186.158 43.5489 184.965 43.5489H183.614V45.5145H182.983V39.9336ZM184.983 42.9697C185.912 42.9697 186.509 42.4783 186.509 41.7237C186.509 40.9339 185.912 40.5127 185.018 40.5127H183.614V42.9697H184.983Z" fill="white"/>
<path d="M189.246 42.7239C189.246 41.1795 190.404 39.8457 192.088 39.8457C193.79 39.8457 194.912 41.1795 194.912 42.7239C194.912 44.2683 193.754 45.6021 192.07 45.6021C190.369 45.6021 189.246 44.2858 189.246 42.7239ZM194.263 42.7239C194.263 41.4603 193.333 40.4249 192.07 40.4249C190.79 40.4249 189.895 41.4428 189.895 42.7239C189.895 43.9875 190.825 45.0229 192.088 45.0229C193.351 45.0229 194.263 44.005 194.263 42.7239Z" fill="white"/>
<path d="M197.439 39.9336H199.807C200.439 39.9336 200.948 40.1091 201.263 40.425C201.491 40.6707 201.614 40.9515 201.614 41.3376C201.614 42.0571 201.176 42.4432 200.737 42.6187C201.404 42.8118 201.93 43.1979 201.93 43.9876C201.93 44.9353 201.123 45.5145 199.912 45.5145H197.439V39.9336ZM199.702 42.4257C200.456 42.4257 200.983 42.0922 200.983 41.4078C200.983 40.8637 200.544 40.4952 199.755 40.4952H198.053V42.4081H199.702V42.4257ZM199.93 44.9529C200.772 44.9529 201.298 44.5843 201.298 43.935C201.298 43.3383 200.79 42.9873 199.825 42.9873H198.07V44.9529H199.93Z" fill="white"/>
<path d="M206.281 39.8984H206.877L209.421 45.5144H208.737L208.088 44.0402H205.053L204.386 45.5144H203.737L206.281 39.8984ZM207.825 43.4786L206.561 40.6355L205.281 43.4786H207.825Z" fill="white"/>
<path d="M211.702 39.9336H212.333V42.4081H215.544V39.9336H216.176V45.4969H215.544V43.0048H212.333V45.5145H211.702V39.9336Z" fill="white"/>
<path d="M218.93 39.9336H219.562V44.5492L222.895 39.9336H223.491V45.4969H222.877V40.8813L219.562 45.4969H218.947V39.9336H218.93Z" fill="white"/>
<path d="M226.263 39.9336H230.281V40.5127H226.877V42.4081H229.912V42.9873H226.877V44.9353H230.316V45.5145H226.246V39.9336H226.263Z" fill="white"/>
<path fill-rule="evenodd" clip-rule="evenodd" d="M22.3158 20.2599L9.68426 42.25L7.92987 45.3037C7.87724 45.3915 7.80706 45.4617 7.71935 45.5143C7.63163 45.567 7.54391 45.5845 7.43864 45.5845H6.77198H4.77198C4.66671 45.5845 4.57899 45.567 4.49127 45.5143C4.40355 45.4617 4.33338 45.3915 4.28075 45.3037C4.22812 45.216 4.21057 45.1107 4.21057 45.0229C4.21057 44.9352 4.22812 44.8299 4.28075 44.7421L5.28075 43.0047L21.1579 15.3635L22.1579 13.626C22.2106 13.5383 22.2808 13.4681 22.3685 13.4154C22.4562 13.3628 22.5439 13.3452 22.6492 13.3452C22.7544 13.3452 22.8422 13.3628 22.9299 13.4154C23.0176 13.4681 23.0878 13.5383 23.1404 13.626L24.1404 15.3635L30.6667 26.7183L32.4211 29.7544C32.4737 29.8422 32.4913 29.9475 32.4913 30.0353C32.4913 30.123 32.4737 30.2283 32.4211 30.3161L30.6667 33.3522L27.579 38.7225C27.5264 38.8102 27.4562 38.8804 27.3685 38.9331C27.2808 38.9857 27.193 39.0033 27.0878 39.0033H24.4211C24.3158 39.0033 24.2281 38.9857 24.1404 38.9331C24.0527 38.8804 23.9825 38.8102 23.9299 38.7225C23.8772 38.6347 23.8597 38.5294 23.8597 38.4417C23.8597 38.3539 23.8772 38.2486 23.9299 38.1609L28.4737 30.2283C28.5088 30.1581 28.5264 30.0879 28.5264 30.0353C28.5264 29.9651 28.5088 29.8948 28.4737 29.8422L22.965 20.2599C22.9299 20.1897 22.8772 20.1371 22.8246 20.1195C22.772 20.0844 22.7018 20.0669 22.6316 20.0669C22.5615 20.0669 22.4913 20.0844 22.4386 20.1195C22.4036 20.1546 22.3509 20.2073 22.3158 20.2599Z" fill="#2C56DB"/>
<path fill-rule="evenodd" clip-rule="evenodd" d="M24.6667 29.9827L18.0351 41.5481C18 41.6183 17.9825 41.6885 17.9825 41.7412C17.9825 41.8114 18 41.8816 18.0351 41.9342C18.0702 42.0044 18.1228 42.0571 18.1755 42.0746C18.2281 42.1097 18.2983 42.1273 18.3685 42.1273H29.3685C29.4386 42.1273 29.5088 42.1097 29.5614 42.0746C29.6141 42.0395 29.6667 41.9869 29.7018 41.9342L32.5965 36.9149L34.0702 34.3526C34.1228 34.2649 34.193 34.1947 34.2807 34.142C34.3685 34.0894 34.4562 34.0718 34.5614 34.0718C34.6667 34.0718 34.7544 34.0894 34.8421 34.142C34.9299 34.1947 35 34.2649 35.0527 34.3526L36.386 36.6692C36.4386 36.757 36.4562 36.8623 36.4562 36.95C36.4562 37.0378 36.4386 37.1431 36.386 37.2308L34.6316 40.267L33.4913 42.2501L31.7369 45.3038C31.6842 45.3916 31.6141 45.4618 31.5263 45.5144C31.4386 45.5671 31.3509 45.5846 31.2456 45.5846H27.7544H15.6492H12.7018C12.5965 45.5846 12.5088 45.5671 12.4211 45.5144C12.3334 45.4618 12.2632 45.3916 12.2106 45.3038C12.1579 45.2161 12.1404 45.1108 12.1404 45.023C12.1404 44.9353 12.1579 44.83 12.2106 44.7422L13.6842 42.1799L15.0351 39.8107L22.3334 27.0869C22.386 26.9992 22.4562 26.929 22.5439 26.8764C22.6316 26.8237 22.7193 26.8062 22.8246 26.8062C22.9299 26.8062 23.0176 26.8237 23.1053 26.8764C23.193 26.929 23.2632 26.9992 23.3158 27.0869L24.6492 29.4035C24.7018 29.4913 24.7193 29.5966 24.7193 29.6843C24.7544 29.7896 24.7193 29.8949 24.6667 29.9827Z" fill="#4B8AF9"/>
<path d="M38.6843 45.6548C39.7695 45.6548 40.6492 44.7748 40.6492 43.6892C40.6492 42.6037 39.7695 41.7236 38.6843 41.7236C37.5991 41.7236 36.7194 42.6037 36.7194 43.6892C36.7194 44.7748 37.5991 45.6548 38.6843 45.6548Z" fill="#F72323"/>
</svg>
